<?xml version="1.0" encoding="UTF-8"?>
<svg xmlns="http://www.w3.org/2000/svg" version="1.1" width="200" height="200" viewBox="0 0 200 200"><rect x="0" y="0" width="200" height="200" fill="#ffffff"/><g transform="scale(6.897)"><g transform="translate(0,0)"><path fill-rule="evenodd" d="M9 0L9 1L8 1L8 2L9 2L9 3L8 3L8 4L10 4L10 7L11 7L11 4L12 4L12 8L6 8L6 9L7 9L7 10L6 10L6 11L7 11L7 12L5 12L5 11L3 11L3 10L5 10L5 8L0 8L0 10L1 10L1 9L3 9L3 10L2 10L2 11L3 11L3 14L4 14L4 13L8 13L8 14L5 14L5 15L3 15L3 18L5 18L5 19L4 19L4 20L3 20L3 19L2 19L2 21L4 21L4 20L5 20L5 21L8 21L8 23L11 23L11 22L12 22L12 23L13 23L13 22L14 22L14 21L15 21L15 19L16 19L16 20L17 20L17 22L15 22L15 23L17 23L17 22L19 22L19 23L18 23L18 24L17 24L17 25L16 25L16 26L15 26L15 24L11 24L11 25L13 25L13 26L12 26L12 27L13 27L13 26L15 26L15 27L16 27L16 28L17 28L17 29L18 29L18 28L17 28L17 27L16 27L16 26L18 26L18 27L20 27L20 28L19 28L19 29L20 29L20 28L21 28L21 29L25 29L25 28L26 28L26 29L27 29L27 28L28 28L28 26L29 26L29 25L28 25L28 24L26 24L26 25L25 25L25 23L27 23L27 22L29 22L29 20L28 20L28 19L27 19L27 16L28 16L28 15L27 15L27 14L25 14L25 13L27 13L27 12L28 12L28 11L27 11L27 12L26 12L26 11L25 11L25 13L22 13L22 14L23 14L23 15L21 15L21 13L20 13L20 12L21 12L21 11L19 11L19 13L18 13L18 12L17 12L17 11L18 11L18 10L22 10L22 12L23 12L23 11L24 11L24 10L25 10L25 9L26 9L26 8L25 8L25 9L24 9L24 8L23 8L23 9L22 9L22 8L21 8L21 5L20 5L20 3L21 3L21 2L19 2L19 1L21 1L21 0L19 0L19 1L18 1L18 3L17 3L17 0L15 0L15 3L12 3L12 2L14 2L14 1L11 1L11 2L10 2L10 0ZM10 3L10 4L11 4L11 3ZM16 3L16 4L15 4L15 5L13 5L13 8L12 8L12 9L14 9L14 6L15 6L15 8L16 8L16 9L17 9L17 10L16 10L16 11L15 11L15 10L13 10L13 11L12 11L12 10L11 10L11 9L10 9L10 11L11 11L11 12L10 12L10 13L12 13L12 14L11 14L11 15L12 15L12 16L10 16L10 17L8 17L8 15L10 15L10 14L8 14L8 15L6 15L6 16L7 16L7 17L6 17L6 18L7 18L7 17L8 17L8 19L9 19L9 18L10 18L10 21L9 21L9 20L8 20L8 21L9 21L9 22L11 22L11 19L12 19L12 20L14 20L14 19L12 19L12 18L14 18L14 17L17 17L17 16L19 16L19 15L20 15L20 14L18 14L18 13L17 13L17 14L16 14L16 13L15 13L15 14L14 14L14 13L12 13L12 12L16 12L16 11L17 11L17 10L18 10L18 9L21 9L21 8L20 8L20 5L19 5L19 7L18 7L18 4L19 4L19 3L18 3L18 4L17 4L17 3ZM16 4L16 5L15 5L15 6L16 6L16 7L17 7L17 6L16 6L16 5L17 5L17 4ZM8 5L8 7L9 7L9 5ZM17 8L17 9L18 9L18 8ZM27 8L27 9L28 9L28 10L29 10L29 9L28 9L28 8ZM8 9L8 10L7 10L7 11L9 11L9 9ZM0 11L0 13L1 13L1 16L2 16L2 12L1 12L1 11ZM8 12L8 13L9 13L9 12ZM28 13L28 14L29 14L29 13ZM12 14L12 15L14 15L14 14ZM15 14L15 15L16 15L16 16L17 16L17 15L16 15L16 14ZM24 14L24 15L23 15L23 16L20 16L20 17L23 17L23 16L24 16L24 17L25 17L25 19L23 19L23 18L21 18L21 20L25 20L25 21L26 21L26 20L27 20L27 19L26 19L26 17L25 17L25 16L27 16L27 15L25 15L25 14ZM24 15L24 16L25 16L25 15ZM12 16L12 17L14 17L14 16ZM0 17L0 21L1 21L1 17ZM28 17L28 18L29 18L29 17ZM18 18L18 19L17 19L17 20L18 20L18 21L19 21L19 22L20 22L20 21L19 21L19 20L18 20L18 19L20 19L20 18ZM6 19L6 20L7 20L7 19ZM12 21L12 22L13 22L13 21ZM21 21L21 24L24 24L24 21ZM22 22L22 23L23 23L23 22ZM8 24L8 29L9 29L9 28L11 28L11 26L10 26L10 25L9 25L9 24ZM18 24L18 25L20 25L20 24ZM21 25L21 27L22 27L22 28L24 28L24 27L22 27L22 26L25 26L25 25ZM27 25L27 26L28 26L28 25ZM9 26L9 27L10 27L10 26ZM26 27L26 28L27 28L27 27ZM12 28L12 29L13 29L13 28ZM14 28L14 29L15 29L15 28ZM0 0L0 7L7 7L7 0ZM1 1L1 6L6 6L6 1ZM2 2L2 5L5 5L5 2ZM22 0L22 7L29 7L29 0ZM23 1L23 6L28 6L28 1ZM24 2L24 5L27 5L27 2ZM0 22L0 29L7 29L7 22ZM1 23L1 28L6 28L6 23ZM2 24L2 27L5 27L5 24Z" fill="#000000"/></g></g></svg>
